<?xml version="1.0" encoding="UTF-8"?>
<svg version="1.1" viewBox="0 0 2048 1151" width="1280" height="1280" xmlns="http://www.w3.org/2000/svg">
<path transform="translate(0)" d="m0 0h2048v1151h-2048z" fill="#FEFEFE"/>
<path transform="translate(1024,225)" d="m0 0h57l29 3 23 4 26 6 36 12 24 10 19 9 23 13 19 12 17 13 14 11 10 9 8 7 24 24 9 11 7 8 15 20 10 15 10 17 12 22 12 27 10 28 7 24 6 28 4 29 2 32v27l-2 31-5 32-6 26-9 29-13 32-16 32-12 20-11 16-13 17-9 11-12 13-7 8-15 15-8 7-13 11-16 12-14 10-21 13-26 14-27 12-35 12-27 7-27 5-25 3-13 1h-46l-24-2-33-5-26-6-29-9-26-10-25-12-19-10-19-12-17-12-14-11-13-11-10-9-24-24-9-11-11-13-14-19-14-22-13-24-11-23-10-26-8-25-6-24-6-36-2-26v-51l2-23 5-30 6-25 8-26 10-26 12-26 12-22 12-19 13-18 8-10 9-11 22-24 7-7 8-7 10-9 14-11 19-14 17-11 23-13 29-14 27-10 25-8 26-6 23-4z" fill="#FDFDFD"/>
<path transform="translate(1024,225)" d="m0 0h57l29 3 23 4 26 6 36 12 24 10 19 9 23 13 19 12 17 13 14 11 10 9 8 7 24 24 9 11 7 8 15 20 10 15 10 17 12 22 12 27 10 28 7 24 6 28 4 29 2 32v27l-2 31-5 32-6 26-9 29-13 32-16 32-12 20-11 16-13 17-9 11-12 13-7 8-15 15-8 7-13 11-16 12-14 10-21 13-26 14-27 12-35 12-27 7-27 5-25 3-13 1h-46l-24-2-33-5-26-6-29-9-26-10-25-12-19-10-19-12-17-12-14-11-13-11-10-9-24-24-9-11-11-13-14-19-14-22-13-24-11-23-10-26-8-25-6-24-6-36-2-26v-51l2-23 5-30 6-25 8-26 10-26 12-26 12-22 12-19 13-18 8-10 9-11 22-24 7-7 8-7 10-9 14-11 19-14 17-11 23-13 29-14 27-10 25-8 26-6 23-4zm6 4-38 4-31 6-30 8-33 12-26 12-22 12-19 12-19 13-16 13-14 12-17 16-16 17-9 11-11 14-14 20-13 22-12 22-12 28-9 25-7 25-5 22-4 26-2 19v54l3 30 5 29 8 32 10 29 13 30 13 25 15 24 13 18 13 16 12 14 27 27 11 9 13 11 17 12 20 13 21 12 29 14 27 10 26 8 36 8 30 4 10 1h55l35-4 26-5 27-7 27-9 24-10 17-8 23-13 30-20 16-12 10-9 8-7 12-11 12-12 7-8 12-14 15-20 10-15 12-20 12-23 10-22 11-30 8-29 5-26 4-31 1-13v-39l-3-34-5-30-7-29-12-36-11-25-8-16-11-20-11-17-12-17-13-16-13-15-25-25-8-7-13-11-18-13-15-10-25-15-17-9-28-12-36-12-28-7-29-5-31-3z" fill="#A2BFEB"/>
<path transform="translate(937,605)" d="m0 0h22l-1 9-3 14v3l10-11 7-8 6-7h11l-2 4-14 15-5 7 13 34 2-2 12-26 14-30 2-2h23l2 11 5 46v8h-24l-1-16h-19l-3 9-4 7h-30l-8-25-4 16-2 9h-23l12-57z" fill="#FF1011"/>
<path transform="translate(729,604)" d="m0 0h10l9 2 6 4 4 5 3 8v14l-3 11-5 10-5 6-12 6 5 4 6 2-5 5-9 7-5-1-7-7-5-9-10-3-6-5-3-6-1-4v-18l4-12 6-8 8-7 8-3z" fill="#FF1011"/>
<path transform="translate(1060,605)" d="m0 0h30l11 2 6 4 4 7 1 4v18l-4 12-4 6-9 8-13 4h-36l2-12 11-51z" fill="#FF1011"/>
<path transform="translate(1338,605)" d="m0 0h29l11 2 7 6 1 3v9l-4 6-5 4 5 6 2 5v7l-4 8-8 6-11 3h-37l1-9 12-55z" fill="#FF1011"/>
<path transform="translate(1206,605)" d="m0 0h22l-1 8-4 18-1 2 12-1 6-26 1-1h21l-1 10-11 52-1 3h-22l1-9 4-20-11 1-6 27-1 1h-22l5-25 8-38z" fill="#FF1011"/>
<path transform="translate(1011,394)" d="m0 0h17l22 1 28 3 15 4 23 8 27 11 6 3v1l-30-1h-43l-36 1-10-3-13-12-15-12 1-3z" fill="#1A0303"/>
<path transform="translate(1111,506)" d="m0 0h16l22 1 5 5 5 3 27 2 41 1 23-1 23-3 10-3h3l2 5-1 5-6 4-13 3-22 2-21 1h-60l-44-3-9-1z" fill="#1E0303"/>
<path transform="translate(1149,604)" d="m0 0h9l12 3 4 3-3 13-1 1h-17l-1-11h-6l-4 3-1 8 4 3 17 5 5 4 3 7v10l-4 8-7 6-9 3-8 1h-14l-11-3-5-3 3-13 3-2 16 1 1 9 2 2 7-1 3-5v-5l-1-3-10-3-10-4-5-6-1-2v-11l3-6 8-7 11-4z" fill="#FF1011"/>
<path transform="translate(896,604)" d="m0 0h10l13 3 7 4-3 17-1 2h-18l-1-17h-6l-4 5-5 15-2 12v14l2 3 6-1 5-10 2-6h19l-1 8-3 11-5 3-8 3-8 1h-11l-10-3-8-6-4-11v-14l4-13 6-8 8-7 10-4z" fill="#FF1011"/>
<path transform="translate(775,605)" d="m0 0h23l-5 25-4 19v8l3 3h11l4-4 4-13 7-34 2-4h8l1 3-9 41-4 10-5 6-8 4-9 2h-13l-9-3-5-4-2-5v-11l9-42z" fill="#FF1011"/>
<path transform="translate(1273,605)" d="m0 0h23l-2 12-7 32v8l3 3h11l4-4 3-8 9-42 1-1h9l-2 12-8 36-5 9-8 6-12 3h-13l-9-3-5-4-2-5v-9l5-26 4-17z" fill="#FF1011"/>
<path transform="translate(965,399)" d="m0 0h15l13 4 10 7 6 5 9 13v2l-10 1-61 2-8-13-8-9v-2l12-5 16-4z" fill="#190303"/>
<path transform="translate(1213,445)" d="m0 0h30l15 4 6 5 5 14v7l-1 1h-20l-25-1-7-4-9-14-3-6 1-5z" fill="#180303"/>
<path transform="translate(1102,427)" d="m0 0h50l41 4 33 5 19 5 12 5-3 1-10-3-13-1-24 1-7 1 1 5 11 21-1 2-7-9-11-11-14-9-9-3-44-7-27-3-20-1-1-2z" fill="#280404"/>
<path transform="translate(840,605)" d="m0 0h21l-1 8-12 56-1 1h-22l5-25 8-37z" fill="#FF1011"/>
<path transform="translate(732,612)" d="m0 0h5l1 2v18l-4 17-6 12-2 2h-6l-2-4v-12l3-16 4-11 5-7z" fill="#FEFEFE"/>
<path transform="translate(1070,461)" d="m0 0 10 1 9 6 6 9 4 11 1 4v20l-4 15-6 9-6 5-8 3h-8l4-2 8-5 6-9 4-13 1-6v-19l-3-12-4-8-6-5-8-3z" fill="#280404"/>
<path transform="translate(924,412)" d="m0 0 5 2 7 8 5 9v2l-37 2-10 1 2-4 7-8 11-7z" fill="#1F0303"/>
<path transform="translate(1083,612)" d="m0 0 7 2 1 2-1 16-4 17-5 10-3 3-8 1 1-9 9-41z" fill="#FEFEFE"/>
<path transform="translate(1247,534)" d="m0 0h6l-4 5-12 7-11 3h-11l-10-3-9-6-4-3v-2z" fill="#2B0404"/>
<path transform="translate(1166,445)" d="m0 0h8l9 5v2h3 3l5 6v7l-2 1-2-8v1 8l-3 2h-8l-8-4-6-7-2-5 1-6z" fill="#1D0303"/>
<path transform="translate(861,518)" d="m0 0h9l76 7 51 4 8 1v1h-53l-21-1-70-11z" fill="#4E0606"/>
<path transform="translate(935,712)" d="m0 0 7 2 3 4v7l-3 6-5 5 3 1-4 3-4-1-1-4-6-2-2-4 1-10 4-5z" fill="#2C0404"/>
<path transform="translate(1136,445)" d="m0 0h7l10 5 5 5 1 6-5 5h-8l-7-3-5-4-3-6 1-5z" fill="#1E0303"/>
<path transform="translate(1108,712)" d="m0 0 6 1 3 3 1 2v7l-3 6-4 3-8 1-5-2-2-4 1-9 3-5 3-2z" fill="#2E0404"/>
<path transform="translate(896,477)" d="m0 0 3 3 6 8 9 4 99 6v1h-39l-63-1-7-2-5-8z" fill="#420505"/>
<path transform="translate(1050,713)" d="m0 0h14l4 4v8l-3 6-4 3h-15z" fill="#270404"/>
<path transform="translate(1102,513)" d="m0 0 2 4 1 15 10 1v3l-9 8-5 2-13 1h-10l3-3 8-5 7-8 5-12z" fill="#2E0404"/>
<path transform="translate(936,397)" d="m0 0 4 1-15 6-15 8-13 10-10 9-14 11-16 10-19 10-21 9-22 8-3-1 33-13 21-10 17-10 14-10 10-9 8-7 14-10 16-8z" fill="#420505"/>
<path transform="translate(915,504)" d="m0 0h43l53 2v1l-21 1h-63l-24-1v-1z" fill="#5F0707"/>
<path transform="translate(1079,713)" d="m0 0h14l3 3v6l-5 5-7 1-1 6h-8l2-12z" fill="#290404"/>
<path transform="translate(1e3 713)" d="m0 0h8l-1 7 7-7 3 1-5 6 1 6 2 8h-7l-3-6-2 6h-7l2-13z" fill="#270404"/>
<path transform="translate(1131,712)" d="m0 0 7 1v6h-6l-1-4-3 3 2 2 6 2 1 2v6l-4 4-9 1-6-2 1-5h6l1 3 3-1-1-3-6-3-1-1v-6l5-4z" fill="#2D0404"/>
<path transform="translate(991,712)" d="m0 0 7 1 2 3-1 5h-6l-1-5h-2l-2 4-1 11h2l2-5h7l-2 7-5 2-8-1-4-4v-9l3-5 4-3z" fill="#2C0404"/>
<path transform="translate(1034,713)" d="m0 0h8l1 2 1 9v10h-7l-1-5-6 1-2 4-4-1 9-19z" fill="#401617"/>
<path transform="translate(949,713)" d="m0 0h8l-2 17h5l4-17h3l-1 10-3 8-3 3-8 1-5-2-1-6z" fill="#340405"/>
<path transform="translate(1352,640)" d="m0 0h7l3 5-1 10-4 6-2 2h-8z" fill="#FEFEFE"/>
<path transform="translate(1012,620)" d="m0 0h1l2 18v8h-14l2-6z" fill="#FEFEFE"/>
<path transform="translate(1141,713)" d="m0 0h18l-1 3h-4l-4 18h-8l3-17-4-2z" fill="#2A0404"/>
<path transform="translate(1359,612)" d="m0 0 6 2 2 3-1 9-4 6h-8l3-16z" fill="#FEFEFE"/>
<path transform="translate(971,713)" d="m0 0h7l-2 12-2 9h-8l4-20z" fill="#2A0404"/>
<path transform="translate(869,441)" d="m0 0m-2 1 3 1-3 3-21 12-26 12-25 9-3-1 33-13 21-10 17-10z" fill="#5D0707"/>
<path transform="translate(1231,442)" d="m0 0 13 1 13 4-2 2-12-3h-35l1-3z" fill="#E4ECF8"/>
<path transform="translate(1265,454)" d="m0 0 4 1 6 9 2 9h-3l-5-8z" fill="#390505"/>
<path transform="translate(1108,715)" d="m0 0h2v10l-3 7h-3v-9l3-7z" fill="#F6F8FC"/>
<path transform="translate(935,715)" d="m0 0h2v9l-3 7-3 1v-10l3-6z" fill="#F2F6FB"/>
<path transform="translate(1058,715)" d="m0 0 3 1-1 10-3 6h-3l3-16z" fill="#EEF3FA"/>
<path transform="translate(894,420)" d="m0 0m-1 1m-1 1m-1 1m-1 1m-1 1m-2 1h2l-1 4-15 12-4 1 1-3 9-7z" fill="#470506"/>
<path transform="translate(936,397)" d="m0 0 4 1-15 6-9 4v-3z" fill="#6F0808"/>
<path transform="translate(1151,447)" d="m0 0 4 1 6 5 1 2v7l-2 3-2-1 2-6-3-6-6-4z" fill="#670708"/>
<path transform="translate(1148,445)" d="m0 0 1 2 5 2 5 5 2 6-2 4-2-1 1-5-3-5-7-5z" fill="#D9E5F6"/>
<path transform="translate(1186,451)" d="m0 0 4 2 4 5v7l-2 1-2-8-2-2-2-4z" fill="#690E0E"/>
<path transform="translate(1087,715)" d="m0 0 2 1v6l-2 3-3-1z" fill="#F4F7FC"/>
</svg>
